# xmcd CD database file
#
# Track frame offsets:
#	150
#	24658
#	46221
#	64756
#	87235
#	108418
#	126347
#	143966
#	166609
#	196191
#	219226
#	236951
#	263017
#	286865
#
# Disc length: 4162 seconds
#
# Revision: 2
# Processed by: cddbd v1.5.2PL0 Copyright (c) Steve Scherf et al.
# Submitted via: CDex 1.70beta2
#
DISCID=c310400e
DTITLE=九州男 - BEST Tracks
DYEAR=1900
DGENRE=Blues
TTITLE0=1/6000000000 feat.C&K
TTITLE1=music♪
TTITLE2=New Birthday
TTITLE3=dear mama
TTITLE4=少年⇒爾来～やっと見つけた明日～
TTITLE5=待ち合わせ。。 feat.lecca
TTITLE6=Come In Now! feat.杉本恭一(LA-PPISCH)
TTITLE7=雲の上の君え (prologue)
TTITLE8=桜道 -album mix-
TTITLE9=地球の歩き方
TTITLE10=Happy Drive
TTITLE11=キミが居るなら…
TTITLE12=約束。。 feat.HOME MADE 家族
TTITLE13=雲の上の君と (epilogue) -album mix-
EXTD=
EXTT0=
EXTT1=
EXTT2=
EXTT3=
EXTT4=
EXTT5=
EXTT6=
EXTT7=
EXTT8=
EXTT9=
EXTT10=
EXTT11=
EXTT12=
EXTT13=
PLAYORDER=
